<svg xmlns="http://www.w3.org/2000/svg" viewBox="-46 -37 8800 2900">
	<path fill="#FFC43D" d="M1504 0l-204 668h668l204-668h-668z"/>
	<path fill="#FFC43D" d="M204 1056l-204 668h668l204-668h-668z"/>
	<path fill="#1E1E24" d="M8290 476h-5202c0 128-128 256-256 256h-800l-244 800c-32 128-128 256-256 256h-800l-314 1030 1030 8 244-800c32-128 128-256 256-256h800l244-800c32-128 128-256 256-256h870c232 8 240 8 276 32 20 12 52 46 68 72 24 38 32 60 36 116 4 60 0 92-42 242-26 96-56 192-68 216-50 96-148 186-252 224-54 20-76 20-378 20h-328l-122 514h398c388 0 396 2 472 68 50 46 66 84 68 158 0 62-8 92-80 448h1030l40-144c52-206 54-236 50-312-4-70-8-100-40-168-36-72-118-168-180-212l-28-20 70-40c244-142 348-294 444-618 32-128 44-238 16-354l-74-242h800c256 0 288 128 256 256l-564 1854h1030l564-1854c64-192 128-256 256-256h800l72-238z"/>
	<path fill="#FFC43D" d="M2632 2158l-204 668h668l204-668h-668z"/>
</svg>